<svg xmlns="http://www.w3.org/2000/svg" version="1.1" xmlns:xlink="http://www.w3.org/1999/xlink" width="1500" height="1500" viewBox="0 0 1500 1500"><rect width="1500" height="1500" x="0" y="0" id="background" stroke="transparent" fill="#ffffff"></rect><svg xml:space="preserve" width="1000" height="1000" data-version="2" data-id="lg_bfMjZ0vqmChwFSucqP" viewBox="0 0 563 300" x="250" y="250"><rect width="100%" height="100%" fill="transparent"></rect><g transform="translate(31.5 243.12)"><linearGradient id="a" x1="-.04" x2="8.89" y1="0" y2="0" gradientUnits="objectBoundingBox"><stop offset="0%" stop-color="#909090"></stop><stop offset="100%" stop-color="#747474"></stop></linearGradient><path fill="url(#a)" d="M147.35 525.73q-7.06 0-12.23-2.42-5.16-2.42-7.67-7.07t-1.49-11.25h13.3q-.46 3.07.61 5.39 1.07 2.33 3.48 3.58 2.42 1.26 5.68 1.26 3.25 0 5.72-1.16 2.46-1.17 3.81-3.17t1.53-4.79q.1-1.86-.69-3.34-.79-1.49-2.19-2.61-1.39-1.11-3.35-2-1.95-.88-4.18-1.67-2.23-.79-4.65-1.63-6.6-2.23-9.95-6.23-3.35-4-3.07-9.76.28-6.24 3.63-10.84 3.34-4.6 8.97-7.11 5.63-2.51 12.79-2.51 6.51 0 11.11 2.23t6.88 6.46q2.28 4.23 1.54 10.18h-13.49q.47-2.51-.51-4.37-.98-1.86-2.93-2.88-1.95-1.02-4.74-1.02-2.79-.1-4.98.93-2.18 1.02-3.39 2.79-1.21 1.76-1.4 4.18-.09 1.77.56 3.03.65 1.25 1.86 2.23 1.21.97 2.93 1.76 1.72.79 3.77 1.54 2.04.74 4.28 1.58 3.16 1.12 5.9 2.65 2.74 1.53 4.84 3.63 2.09 2.09 3.16 4.93 1.07 2.83.88 6.46-.28 6.23-3.62 10.93-3.35 4.69-9.21 7.39-5.86 2.7-13.49 2.7" transform="translate(-151.34 -492.06)"></path></g><rect width="52.05" height="67.33" x="-26.02" y="-33.66" fill="none" rx="0" ry="0" transform="translate(32 243.62)"></rect><g transform="translate(87.51 252.22)"><linearGradient id="b" x1="-1.03" x2="7.78" y1="0" y2="0" gradientUnits="objectBoundingBox"><stop offset="0%" stop-color="#909090"></stop><stop offset="100%" stop-color="#747474"></stop></linearGradient><path fill="url(#b)" d="M203.43 525.73q-6.32 0-10.97-2.84t-7.07-7.76q-2.42-4.93-2.05-11.26.19-5.76 2.42-10.74 2.23-4.97 6-8.65 3.77-3.67 8.7-5.76 4.93-2.1 10.69-2.1 6.33 0 10.98 2.79t7.11 7.68q2.46 4.88 2.19 11.3-.28 5.85-2.52 10.83-2.23 4.98-6.04 8.7-3.81 3.72-8.74 5.76-4.93 2.05-10.7 2.05m1.68-10.88q3.72 0 6.65-2t4.74-5.63q1.81-3.63 2-8.37.28-3.63-.84-6.18-1.11-2.56-3.21-3.86-2.09-1.31-4.88-1.31-3.63 0-6.56 2.05-2.93 2.05-4.74 5.63t-2.09 8.32q-.19 3.63.93 6.19 1.11 2.55 3.21 3.85 2.09 1.31 4.79 1.31" transform="translate(-207.35 -501.18)"></path></g><rect width="48.39" height="49.11" x="-24.19" y="-24.55" fill="none" rx="0" ry="0" transform="translate(88.01 252.72)"></rect><g transform="translate(145.81 252.78)"><linearGradient id="c" x1="-2.02" x2="6.73" y1="0" y2="0" gradientUnits="objectBoundingBox"><stop offset="0%" stop-color="#909090"></stop><stop offset="100%" stop-color="#747474"></stop></linearGradient><path fill="url(#c)" d="M255.42 525.73q-6.05 0-9.63-2.56-3.58-2.56-4.79-7.25-1.2-4.7-.09-11.02l4.74-27.16h12.56l-4.65 25.95q-.84 5.48.84 8.46 1.67 2.98 6.69 2.98 3.16 0 5.86-1.4 2.7-1.39 4.65-4.09 1.95-2.7 2.7-6.6l4.37-25.3h12.55l-8.18 46.87h-11.07l.19-7.44q-2.7 3.91-7.02 6.23-4.33 2.33-9.72 2.33" transform="translate(-265.65 -501.74)"></path></g><rect width="51.13" height="47.99" x="-25.57" y="-24" fill="none" rx="0" ry="0" transform="translate(146.31 253.28)"></rect><g transform="translate(201.18 251.67)"><linearGradient id="d" x1="-3.02" x2="5.74" y1="0" y2="0" gradientUnits="objectBoundingBox"><stop offset="0%" stop-color="#909090"></stop><stop offset="100%" stop-color="#747474"></stop></linearGradient><path fill="url(#d)" d="M307.96 524.61h-12.55l8.18-46.87h11.07l-.19 7.44q2.79-3.91 7.12-6.23 4.32-2.33 9.72-2.33 6.04 0 9.58 2.61 3.53 2.6 4.79 7.25 1.25 4.65.14 11.07l-4.84 27.06h-12.46l4.55-25.85q.93-5.49-.83-8.51-1.77-3.02-6.79-3.02-3.16 0-5.81 1.44-2.65 1.44-4.56 4.14-1.91 2.69-2.65 6.51z" transform="translate(-321.02 -500.62)"></path></g><rect width="51.23" height="47.99" x="-25.61" y="-24" fill="none" rx="0" ry="0" transform="translate(201.68 252.17)"></rect><g transform="translate(264.04 242.74)"><linearGradient id="e" x1="-3.82" x2="4.45" y1="0" y2="0" gradientUnits="objectBoundingBox"><stop offset="0%" stop-color="#909090"></stop><stop offset="100%" stop-color="#747474"></stop></linearGradient><path fill="url(#e)" d="M373.16 525.73q-5.77 0-9.91-2.84-4.14-2.84-6.23-7.72-2.09-4.88-1.81-11.02.28-5.95 2.37-10.93 2.09-4.97 5.67-8.69 3.58-3.72 8.23-5.81 4.65-2.1 10.05-2.1 5.48 0 8.93 2 3.44 2 5.11 5.16l4.56-26.13h12.55l-11.72 66.96H389.8l-.27-6.42q-1.68 1.96-4 3.72-2.33 1.77-5.4 2.79-3.07 1.03-6.97 1.03m5.21-10.98q3.99 0 7.25-2.09 3.25-2.09 5.25-5.63 2-3.53 2.19-7.9.19-3.53-1.02-6.09t-3.58-4q-2.38-1.44-5.72-1.44-4 0-7.21 2t-5.16 5.44q-1.96 3.44-2.14 7.81-.19 3.44.98 6.14 1.16 2.69 3.48 4.23 2.33 1.53 5.68 1.53" transform="translate(-383.88 -491.69)"></path></g><rect width="57.6" height="68.08" x="-28.8" y="-34.04" fill="none" rx="0" ry="0" transform="translate(264.54 243.24)"></rect><g transform="translate(315.3 252.22)"><linearGradient id="f" x1="-5.83" x2="4.38" y1="0" y2="0" gradientUnits="objectBoundingBox"><stop offset="0%" stop-color="#909090"></stop><stop offset="100%" stop-color="#747474"></stop></linearGradient><path fill="url(#f)" d="M432.58 525.73q-6.51 0-10.97-2.14-4.46-2.14-6.56-5.86-2.09-3.72-1.62-8.37h12.46q-.09 1.95.84 3.53.93 1.58 2.79 2.47 1.86.88 4.65.88 2.51 0 4.27-.74 1.77-.75 2.75-2.05.97-1.3 1.07-2.88.09-1.68-.89-2.65-.97-.98-2.83-1.63-1.86-.65-4.37-1.12-3.26-.65-6.24-1.72-2.97-1.07-5.2-2.55-2.24-1.49-3.49-3.68-1.26-2.18-1.16-5.25.28-4.47 3.02-7.91 2.74-3.44 7.44-5.44 4.7-2 10.83-2 8.47 0 13.16 3.91 4.7 3.91 4.51 10.6h-11.99q-.19-2.32-2.1-3.63-1.9-1.3-5.06-1.3-3.26 0-5.31 1.35-2.04 1.35-2.13 3.3 0 1.3.97 2.28.98.98 2.93 1.68 1.95.69 4.84 1.25 3.72.84 6.69 1.86 2.98 1.02 5.12 2.47 2.14 1.44 3.16 3.58 1.02 2.13.84 5.3-.19 5.02-3.16 8.74-2.98 3.72-7.96 5.72-4.97 2-11.3 2" transform="translate(-435.14 -501.18)"></path></g><rect width="43.92" height="49.11" x="-21.96" y="-24.55" fill="none" rx="0" ry="0" transform="translate(315.8 252.72)"></rect><g transform="translate(383.56 252.22)"><linearGradient id="g" x1="-4.47" x2="1.87" y1="0" y2="0" gradientUnits="objectBoundingBox"><stop offset="0%" stop-color="#909090"></stop><stop offset="100%" stop-color="#747474"></stop></linearGradient><path fill="url(#g)" d="M485.41 524.61h-13.02l-5.58-46.87h12.46l2.42 38.04-2.33-.1 17.12-37.94h13.85l3.82 37.94-2.33.1 15.72-38.04H540l-22.04 46.87h-12.93l-4.28-39.06h2.61z" transform="translate(-503.4 -501.18)"></path></g><rect width="73.19" height="46.87" x="-36.59" y="-23.43" fill="none" rx="0" ry="0" transform="translate(384.06 252.72)"></rect><g transform="translate(432.34 241.95)"><linearGradient id="h" x1="-16.26" x2="4.56" y1="0" y2="0" gradientUnits="objectBoundingBox"><stop offset="0%" stop-color="#909090"></stop><stop offset="100%" stop-color="#747474"></stop></linearGradient><path fill="url(#h)" d="M552.37 524.61h-12.56l8.28-46.87h12.56zm4.37-53.01q-3.44 0-5.58-2.09t-2.14-5.07q0-3.16 2.14-5.21 2.14-2.04 5.58-2.04t5.63 2.04q2.18 2.05 2.18 5.21 0 2.98-2.23 5.07-2.23 2.09-5.58 2.09" transform="translate(-552.18 -490.9)"></path></g><rect width="24.74" height="67.42" x="-12.37" y="-33.71" fill="none" rx="0" ry="0" transform="translate(432.84 242.45)"></rect><g transform="translate(470.58 261.9)"><linearGradient id="i" x1="-7.31" x2=".93" y1="0" y2="0" gradientUnits="objectBoundingBox"><stop offset="0%" stop-color="#909090"></stop><stop offset="100%" stop-color="#747474"></stop></linearGradient><path fill="url(#i)" d="M574.04 545.07h-12.56l11.91-67.33h11.16l.18 6.51q1.86-2.23 4.19-3.95 2.32-1.72 5.3-2.7 2.97-.98 6.51-.98 5.95 0 10.18 2.84 4.23 2.84 6.42 7.67 2.18 4.84 1.91 10.98-.28 5.67-2.42 10.74-2.14 5.07-5.77 8.83-3.63 3.77-8.32 5.91-4.7 2.14-10.09 2.14-3.35 0-6.09-.93-2.75-.93-4.7-2.56-1.95-1.63-3.16-3.77zm17.67-30.32q4 0 7.21-1.95 3.2-1.95 5.16-5.39 1.95-3.44 2.14-7.82.27-3.44-.98-6.13-1.26-2.7-3.63-4.28t-5.81-1.58q-4 0-7.21 2t-5.16 5.48q-1.95 3.49-2.23 7.96-.19 3.44 1.07 6.09 1.25 2.65 3.67 4.14 2.42 1.48 5.77 1.48" transform="translate(-590.42 -510.85)"></path></g><rect width="57.88" height="68.45" x="-28.94" y="-34.23" fill="none" rx="0" ry="0" transform="translate(471.08 262.4)"></rect><g transform="translate(532.33 252.22)"><linearGradient id="j" x1="-8.97" x2="0" y1="0" y2="0" gradientUnits="objectBoundingBox"><stop offset="0%" stop-color="#909090"></stop><stop offset="100%" stop-color="#747474"></stop></linearGradient><path fill="url(#j)" d="M648.16 525.73q-6.42 0-11.02-2.61-4.61-2.6-6.98-7.34-2.37-4.75-2-11.07.19-5.86 2.38-10.93 2.18-5.07 5.99-8.93 3.82-3.86 8.93-6.04 5.12-2.19 11.35-2.19 6.32 0 10.79 2.61 4.46 2.6 6.69 7.07 2.23 4.46 1.95 10.32 0 1.95-.41 3.95-.42 2-.89 3.67H637l1.3-7.62h25.48q.37-3.16-.65-5.35-1.02-2.18-3.11-3.3-2.1-1.12-4.89-1.12-3.25 0-6.18 1.45-2.93 1.44-4.98 4.41-2.04 2.98-2.88 7.54l-.46 2.69q-.66 3.63.23 6.47.88 2.83 3.21 4.46 2.32 1.63 5.76 1.63 3.54 0 6.05-1.49t4.09-3.81h12.83q-2.14 4.37-5.81 7.9-3.67 3.54-8.46 5.58-4.79 2.05-10.37 2.05" transform="translate(-652.17 -501.18)"></path></g><rect width="48.39" height="49.11" x="-24.19" y="-24.55" fill="none" rx="0" ry="0" transform="translate(532.83 252.72)"></rect><g transform="translate(245.83 31.86)scale(1.6296)"><linearGradient id="k" x1="0" x2="1" y1="0" y2="0" gradientUnits="objectBoundingBox"><stop offset="0%" stop-color="#909090"></stop><stop offset="100%" stop-color="#747474"></stop></linearGradient><path fill="url(#k)" d="M33 30.138V24.81c-3.746 1.263-7.254 2.932-10.437 4.98l-4.429-4.5-4.651 16.819 16.891-4.381-4.224-4.292c2.12-1.278 4.424-2.379 6.85-3.298" transform="translate(-23.24 -33.46)"></path></g><g transform="translate(305.82 18.03)scale(1.6296)"><linearGradient id="l" x1="0" x2="1" y1="0" y2="0" gradientUnits="objectBoundingBox"><stop offset="0%" stop-color="#909090"></stop><stop offset="100%" stop-color="#747474"></stop></linearGradient><path fill="url(#l)" d="m74.107 31.203-12.51-15.531-2.739 7.084c-4.165-.712-8.474-.902-12.857-.563v5.032c3.754-.317 7.443-.227 11.013.3l-2.609 6.748z" transform="translate(-60.05 -24.97)"></path></g><g transform="translate(289.23 67.38)scale(1.6296)"><linearGradient id="m" x1="0" x2="1" y1="0" y2="0" gradientUnits="objectBoundingBox"><stop offset="0%" stop-color="#909090"></stop><stop offset="100%" stop-color="#747474"></stop></linearGradient><path fill="url(#m)" d="M25.068 67.192C25.075 80.894 36.174 91.995 49.874 92c13.702-.005 24.802-11.104 24.807-22.241l-.002-20.124c0-2.777-1.912-4.617-4.273-4.619a4.276 4.276 0 0 0-4.278 4.277v6.217h-1.71l.001-10.506a4.282 4.282 0 0 0-4.278-4.279 4.28 4.28 0 0 0-4.278 4.278l.001 8.979h-1.71l.001-11.335a4.278 4.278 0 0 0-8.555 0v10.295l-1.711.001.002-30.153a4.278 4.278 0 0 0-8.555-.002l.002 42.024-1.711.002V49.521a4.277 4.277 0 0 0-4.277-4.277c-2.363.001-4.278 1.961-4.278 4.277z" transform="translate(-49.87 -55.26)"></path></g></svg></svg>